<?xml version="1.0" encoding="utf-8"?>
<!-- Generator: Adobe Illustrator 29.6.1, SVG Export Plug-In . SVG Version: 9.03 Build 0)  -->
<svg version="1.1" id="_レイヤー_1" xmlns="http://www.w3.org/2000/svg" xmlns:xlink="http://www.w3.org/1999/xlink" x="0px"
	 y="0px" viewBox="0 0 800 224.8214722" enable-background="new 0 0 800 224.8214722" xml:space="preserve">
<path fill="#FFFFFF" d="M5.528491,41.5799713c-0.0459623,0.8718414,1.1076231,1.2261772,1.547658,0.4721298
	c2.8286886-4.8472862,9.191864-14.3943348,18.7741718-21.1993198c11.1621494-7.9269285,20.9632778-11.773016,25.1549625-12.9842129
	c0.1158295-0.0334692,0.3006401-0.1009049,0.381649-0.1705861c0.3117943-0.268199,0.4017067-0.7070642,0.1105919-1.0035295
	c-0.0655365-0.0667434-0.2316589-0.2045083-0.3244514-0.2573767c-4.3362999-2.4706428-17.3280525-9.6488667-28.0326309-4.7831507
	C14.5548973,5.5564466,6.480165,23.5280552,5.528491,41.5799713z"/>
<path fill="#FFFFFF" d="M148.4648132,41.2062073c0.0561829,0.9660072-1.222641,1.3591156-1.7147675,0.5259743
	c-2.9166565-4.937645-9.2105713-14.2210903-18.5863495-20.8794003
	c-11.1621399-7.9269285-20.9632721-11.773016-25.1549606-12.9842129c-0.1158295-0.0334692-0.3006363-0.1009049-0.3816452-0.1705861
	c-0.3117981-0.268199-0.4017105-0.7070642-0.1105957-1.0035295c0.0655441-0.0667434,0.2316589-0.2045083,0.3244553-0.2573767
	c4.3362961-2.4706428,17.3280563-9.6488667,28.0326309-4.7831507
	C139.3998718,5.52951,147.4223633,23.2806358,148.4648132,41.2062073z"/>
<path fill="#FFFFFF" d="M2.4230373,219.0674896c-3.0980365,0-3.2897143-4.5524292-0.2022431-4.8066254
	c74.0139389-6.0936432,219.325943-19.3492889,393.0682678-19.3492889c173.7353516,0,324.8395386,13.2548523,402.4898682,19.3485565
	c3.0943604,0.2428284,2.9107666,4.8073578-0.1931763,4.8073578c0,0-250.3982544-7.0769958-402.2462158-7.0769958
	C247.0135651,211.9904938,2.4230373,219.0674896,2.4230373,219.0674896z"/>
<path fill="#FFFFFF" d="M76.5018387,163.2742462c-39.8794556,0-73.5974121-31.0259399-76.3256836-71.3938141
	c-2.8446488-42.1154938,29.1027985-78.6943207,71.2173386-81.5399246
	c30.5508804-2.059556,61.061264,13.379302,73.2969208,41.4477348c6.8957977,15.8188591,4.3420715,25.3600731-12.4734955,25.3600731
	c-15.2598038,0-14.4184952-1.421669-18.9199905-9.5107498c-8.0073242-14.3889809-23.0942688-23.3097153-39.5328979-22.2111473
	c-24.0224113,1.6235046-41.926754,23.5499535-38.0741158,47.8725395c1.3372192,8.4421616,5.310833,16.3152161,11.3128777,22.4007568
	c8.6151161,8.7349625,20.2505035,13.1306381,32.3417892,12.3121414c12.3697433-0.8356476,23.955101-6.865097,30.8542328-17.1871338
	c3.4579849-5.1736145,10.7102585-5.2390976,19.778923-5.2390976c20.380722,0,14.4532166,17.8530426,8.7915802,25.7430801
	c-13.3809204,18.6447601-34.1758575,30.2236786-57.0541916,31.7690582
	C79.9675064,163.2160492,78.2284698,163.2742462,76.5018387,163.2742462z"/>
<path fill="#FFFFFF" d="M286.3625488,141.3960114c-1.9056702-5.7154236-1.6591187-12.2959595,5.4414062-16.4173965
	c7.3098145-4.2429428,18.4594727-0.725563,27.5281982,6.8025284c3.3818054,2.8031311,7.8198242,3.8052826,13.103302,3.8052826
	c6.340271,0,10.3561707-1.8033905,10.3561707-5.2080536c0-2.0030975-0.845459-3.4046707-7.3970947-5.6086807l-12.6805725-4.4068146
	c-6.1289368-2.2028122-34.6605225-9.0145493-34.6605225-32.0495911c0-21.0331345,19.6549683-34.6542091,45.2274475-34.6542091
	c15.2169495,0,27.8974915,4.2071075,36.7741394,14.824131c2.8650208,3.3936691,7.432373,9.590744,2.5665283,16.0909271
	c-6.9325256,9.2610245-27.0828247,1.5363464-31.943573-1.8695221c-2.3249817-1.602478-5.0720825-2.2028046-7.8198242-2.2028046
	c-4.649353,0-6.9743652,2.403717-6.9743652,5.0071411c0,2.6034317,2.3250122,3.806488,7.3970947,5.4089737l12.257843,4.8074341
	c24.0935669,8.0123978,34.8718872,19.2297516,35.2946167,33.6520691c0,23.6353607-22.6140442,34.0514679-48.3978882,34.0514679
	C310.0327759,163.428894,293.7596436,156.4186554,286.3625488,141.3960114z"/>
<path fill="#FFFFFF" d="M692.6567993,69.0833359c0,2.6477661-1.0150146,5.5946884-3.0460205,8.842659l-36.3049927,76.8735046
	c-3.0460815,5.0524139-7.786438,7.5786133-14.2172852,7.5786133c-7.786438,0-12.7815552-2.5261993-14.9785156-7.5786133
	l-34.7814331-74.1668549c-2.7093506-5.4132919-4.0620728-9.2624283-4.0620728-11.5493088
	c0-10.1048126,5.3308716-15.1581688,15.9945679-15.1581688c7.9533691,0,13.4550171,3.6715393,16.5020752,11.0079765
	l21.3253784,45.4745102l20.564209-46.1962814c2.7054443-6.8577881,8.0372925-10.2862053,15.9945068-10.2862053
	C686.984375,53.9251671,692.6567993,58.9785233,692.6567993,69.0833359z"/>
<path fill="#FFFFFF" d="M411.8477173,144.9719238V30.6627827c0-10.8433533,6.8140564-19.6336269,19.633606-19.6336269h4.7145081
	c11.8422241,0,15.1157837,10.3203278,15.3066101,20.0289421c0.4524536,23.0166817,0,91.7159576,0,91.7159576
	c0,2.9161682,2.3640137,5.2801895,5.2801819,5.2801895h45.6891785c13.9719849,0,16.918335,7.574585,16.918335,16.9183197v0.0000305
	c0,9.3433685-7.5742798,16.9176483-16.9176331,16.9176483h-73.7064819
	C419.4223022,161.8902435,411.8477173,154.3156586,411.8477173,144.9719238z"/>
<path fill="#FFFFFF" d="M532.9714966,151.4247437c-0.270874-3.9743347,0-77.6236954,0-77.6236954
	c0-7.1178284,7.2341919-12.5045509,13.359436-12.8879738c3.9420166-0.2467575,5.75354-0.2623787,9.5209351,0
	c5.982605,0.4166527,13.3601074,5.7704201,13.3601074,12.8885841c0,0,0.166687,73.6792068,0,77.623085
	c-0.2446289,5.7877045-4.4465332,9.6094055-10.8718262,10.4881287c-5.1459351,0.7037506-8.1161499,0.6412811-14.4968262,0
	C539.2609863,161.4523315,533.3654175,157.204895,532.9714966,151.4247437z"/>
<path fill="#FFFFFF" d="M696.923584,108.5542831c0-29.0132904,19.9885864-55.003891,54.3084717-55.003891
	c29.4173584,0,52.4209595,26.6510925,48.2971191,52.9486465c-0.897583,5.7235184-8.7261353,12.3889236-16.2931519,12.3889236
	l-52.4816284-0.1430206c-1.1363525-0.0030975-1.9733276,1.0305176-1.7753296,2.1494904
	c1.4450073,8.1683273,11.2254639,14.0537338,27.7217407,14.0537338c5.6572876,0,12.4456177-1.2085724,19.4230957-5.2375641
	c5.6572266-3.0226898,13.6585693,1.3111877,16.3509521,6.3526611c1.7226562,3.2256622,1.8912964,9.1325531-4.6333618,16.0506592
	c-0.0849609,0.0900879-0.1818237,0.1747131-0.2822876,0.2471008c-11.0651245,7.9726715-21.109436,10.391861-33.4981689,10.391861
	C718.2323608,162.7528839,696.923584,138.5751495,696.923584,108.5542831z M770.9562988,95.1397705
	c1.1583252,0,2.0211792-1.0810699,1.7594604-2.2094803c-2.4285278-10.4716949-12.1102295-14.7143097-21.2944946-14.7143097
	c-9.1588745,0-18.8110352,4.3938904-21.5814209,14.6598816c-0.3078613,1.1408386,0.5638428,2.2639084,1.7454834,2.2639084
	H770.9562988z"/>
<path fill="#FFFFFF" d="M252.2753601,53.5897141c-7.477829-0.0423851-16.3008423,5.3667259-17.8969574,12.21521
	c-8.2153473-7.7119179-16.1731262-12.5965729-27.6605682-12.5965729c-26.2426147,0-47.5166626,24.1804657-47.5166626,54.0086365
	c0,29.8283005,21.2740479,54.008522,47.5166626,54.008522c11.5412292,0,17.587616-4.8193512,25.8200836-12.5966339
	c1.754364,6.6288605,12.418457,11.6713257,19.737442,11.6713257c10.8444824,0,15.7260742-6.894928,15.7260742-15.399231V68.9888229
	C268.0014343,60.4845123,264.5124817,53.6590767,252.2753601,53.5897141z M237.2403564,113.6004639
	c-3.7601166,3.0941696-3.4390869,3.1652374-15.7136078,10.9188843c-9.78685,6.1821289-12.4981842,6.9770508-16.766861,8.8878479
	c-4.9746246,2.2268066-11.0088654-1.3371887-11.6525269-6.9761429c-0.5628357-4.9309692-0.7480164-7.5435028-0.7480164-19.8067322
	c0-9.6348953,0.0719299-14.8900986,0.7480164-19.8068542c0.7606201-5.5315552,6.575058-8.3659973,11.6525269-6.3848648
	c4.3619995,1.7019577,6.6811371,2.4467163,16.4508667,8.4109039c10.7466583,6.5607147,12.0987244,7.8510284,16.0296021,10.8046722
	C241.5979156,102.9224396,241.4491577,110.1370697,237.2403564,113.6004639z"/>
<path fill="#FFFFFF" d="M575.7567139,30.2434177c-11.7822266,6.0211277-17.1071167,11.3460293-23.1282349,23.1282597
	c-0.3771362,0.7379837-1.4312134,0.7379837-1.8083496,0c-6.0211182-11.7822304-11.3460083-17.107132-23.1282349-23.1282597
	c-0.7379761-0.3771362-0.7379761-1.4311638,0-1.8082981c11.7822266-6.0211277,17.1071167-11.3460312,23.1282349-23.1282597
	c0.3771362-0.7379847,1.4312134-0.7379847,1.8083496,0c6.0211182,11.7822285,11.3460083,17.107132,23.1282349,23.1282597
	C576.4946899,28.812254,576.4946899,29.8662815,575.7567139,30.2434177z"/>
<path fill="#FFFFFF" d="M124.6963196,41.3049774"/>
</svg>
