<?xml version="1.0" encoding="utf-8"?>
<!-- Generator: Adobe Illustrator 29.6.1, SVG Export Plug-In . SVG Version: 9.03 Build 0)  -->
<svg version="1.1" id="レイヤー_1" xmlns="http://www.w3.org/2000/svg" xmlns:xlink="http://www.w3.org/1999/xlink" x="0px"
	 y="0px" viewBox="0 0 800 227.204895" enable-background="new 0 0 800 227.204895" xml:space="preserve">
<g>
	<g>
		<path fill="#807575" d="M5.5284219,46.7808876c-0.0459623,0.87183,1.1076078,1.226162,1.5476398,0.4721184
			c2.8286557-4.847229,9.1917629-14.3941727,18.7739639-21.1990814
			c11.1620216-7.9268398,20.963047-11.7728844,25.1546822-12.9840698c0.1158333-0.0334682,0.3006439-0.1009045,0.381649-0.1705847
			c0.3117943-0.2681942,0.4017067-0.7070541,0.1105957-1.0035172c-0.0655479-0.0667429-0.2316628-0.2045069-0.3244553-0.2573748
			c-4.3362503-2.4706144-17.3278656-9.6487598-28.0323181-4.7830968
			C14.5547276,10.7577591,6.4800835,28.7291698,5.5284219,46.7808876z"/>
		<path fill="#807575" d="M148.4631805,46.4071274c0.0561676,0.9659958-1.2226257,1.3591003-1.7147675,0.5259628
			c-2.916626-4.9375877-9.2104645-14.2209282-18.5861359-20.8791656
			c-11.1620255-7.9268398-20.9630356-11.7728844-25.154686-12.9840698
			c-0.1158295-0.0334682-0.3006439-0.1009045-0.3816376-0.1705847c-0.3117981-0.2681942-0.4017105-0.7070541-0.1105881-1.0035172
			c0.0655365-0.0667429,0.2316437-0.2045069,0.32444-0.2573748c4.3362427-2.4706144,17.3278656-9.6487598,28.0323257-4.7830968
			C139.3983154,10.7308226,147.4207153,28.4817543,148.4631805,46.4071274z"/>
		<g>
			<path fill="none" stroke="#E070E7" stroke-width="2" d="M2.4230022,220.9819183
				c-3.0980024,0-3.2896786-4.5523682-0.2022429-4.8065643c74.0131302-6.0935974,219.3235016-19.3490906,393.0639343-19.3490906
				c173.733429,0,324.835907,13.254715,402.4854431,19.3483429c3.0942383,0.2428284,2.9107056,4.807312-0.1932373,4.807312
				c0,0-250.3954468-7.0769348-402.2417297-7.0769348C247.0108337,213.9049835,2.4230022,220.9819183,2.4230022,220.9819183z"/>
			<path fill="#807575" d="M2.4230022,220.9819183c-3.0980024,0-3.2896786-4.5523682-0.2022429-4.8065643
				c74.0131302-6.0935974,219.3235016-19.3490906,393.0639343-19.3490906c173.733429,0,324.835907,13.254715,402.4854431,19.3483429
				c3.0942383,0.2428284,2.9107056,4.807312-0.1932373,4.807312c0,0-250.3954468-7.0769348-402.2417297-7.0769348
				C247.0108337,213.9049835,2.4230022,220.9819183,2.4230022,220.9819183z"/>
		</g>
		<path fill="#807575" d="M76.5009918,167.3789825c-39.8790207,0-73.596611-31.0256042-76.3248444-71.3930359
			c-2.8446183-42.1150284,29.102478-78.6934509,71.2165451-81.5390167
			c30.5505447-2.0595341,61.060585,13.379158,73.2961197,41.4472771c6.8957062,15.8186874,4.3420105,25.359787-12.4733582,25.359787
			c-15.2596436,0-14.4183426-1.4216537-18.9197769-9.5106506c-8.0072327-14.3888168-23.0940247-23.3094482-39.5324707-22.2108955
			c-24.0221481,1.6234856-41.9262924,23.5497017-38.0736961,47.8720055
			c1.337204,8.4420776,5.3107758,16.3150482,11.3127518,22.4005203
			c8.6150246,8.7348557,20.2502861,13.1304855,32.3414345,12.3120041
			c12.3695984-0.8356323,23.9548264-6.8650131,30.8538895-17.1869431c3.4579544-5.1735611,10.710144-5.2390442,19.778717-5.2390442
			c20.3804779,0,14.4530487,17.8528519,8.7914581,25.7427902c-13.3807526,18.6445465-34.1754608,30.2233429-57.0535507,31.7687225
			C79.9666138,167.3207855,78.2276001,167.3789825,76.5009918,167.3789825z"/>
		<path fill="#807575" stroke="#FFFFFF" stroke-width="23.2440948" stroke-linecap="round" stroke-miterlimit="10" d="
			M119.4774628,41.6767921"/>
		<path fill="#807575" d="M286.359375,145.5009766c-1.9056091-5.7153625-1.6591187-12.2958069,5.4413452-16.4172058
			c7.3097534-4.242897,18.459259-0.7255707,27.5278931,6.8024445c3.3817749,2.8031006,7.8197327,3.8052368,13.1031494,3.8052368
			c6.34021,0,10.3560791-1.80336,10.3560791-5.2079926c0-2.0030823-0.845459-3.4046326-7.3970337-5.6086273l-12.6804199-4.4067612
			c-6.1288452-2.2027817-34.6601257-9.0144424-34.6601257-32.0492249c0-21.0329132,19.6547241-34.6538315,45.2269592-34.6538315
			c15.2167358,0,27.8971558,4.2070656,36.7737427,14.823967c2.8649292,3.393631,7.432251,9.5906448,2.5664673,16.090744
			c-6.9324646,9.2609253-27.0825195,1.5363312-31.9432068-1.8694992c-2.3249817-1.6024551-5.072052-2.2027817-7.8197327-2.2027817
			c-4.6493225,0-6.9743042,2.4036942-6.9743042,5.0070877c0,2.6034012,2.3249817,3.8064499,7.3970337,5.4089127
			l12.2576904,4.8073883c24.0933228,8.0123062,34.8714905,19.229538,35.29422,33.65168
			c0,23.6351166-22.6137695,34.0511169-48.3973694,34.0511169
			C310.0293274,167.5336304,293.7563782,160.5234528,286.359375,145.5009766z"/>
		<path fill="#807575" d="M692.6491699,73.1891022c0,2.6477356-1.0150146,5.5946274-3.0460815,8.8425674l-36.3045044,76.8726578
			c-3.0460205,5.0523376-7.7863159,7.5785217-14.2171021,7.5785217c-7.786377,0-12.7814331-2.5261841-14.9783936-7.5785217
			l-34.7810669-74.1660461c-2.7093506-5.4132309-4.0620117-9.2623215-4.0620117-11.5491791
			c0-10.1047058,5.3308105-15.1580009,15.9943848-15.1580009c7.9533081,0,13.454834,3.6715012,16.5018921,11.0078545
			l21.3251953,45.4740067l20.5639038-46.1957703c2.7054443-6.8577118,8.0372314-10.2860909,15.9943848-10.2860909
			C686.9768066,58.0311012,692.6491699,63.0843964,692.6491699,73.1891022z"/>
		<path fill="#807575" d="M411.8431396,149.0768585V34.7689743c0-10.843235,6.8140259-19.6334114,19.6334229-19.6334114h4.714447
			c11.8420715,0,15.1156006,10.3202162,15.306427,20.0287209c0.4524536,23.0164261,0,91.7149582,0,91.7149582
			c0,2.9161224,2.3640137,5.2801056,5.2801514,5.2801056h45.6886597c13.9718018,0,16.9181519,7.5745239,16.9181519,16.9181366
			v0.0000458c0,9.3432617-7.5742188,16.91745-16.91745,16.91745h-73.705658
			C419.4176636,165.9949799,411.8431396,158.4204865,411.8431396,149.0768585z"/>
		<path fill="#807575" d="M532.9655762,155.5296021c-0.270813-3.9743042,0-77.6228409,0-77.6228409
			c0-7.1177521,7.2341919-12.5044174,13.359314-12.8878326c3.9419556-0.2467499,5.753479-0.2623672,9.520813,0
			c5.982605,0.4166565,13.3599243,5.7703629,13.3599243,12.888443c0,0,0.166748,73.6783829,0,77.6222305
			c-0.2445679,5.7876282-4.4464722,9.6092987-10.8716431,10.4880219c-5.145874,0.7037354-8.1160889,0.6412506-14.4966431,0
			C539.2550049,165.5570831,533.3594971,161.3096924,532.9655762,155.5296021z"/>
		<path fill="#807575" d="M696.9158936,112.6596222c0-29.0129776,19.9882812-55.0032959,54.3079224-55.0032959
			c29.4169922,0,52.4203491,26.6508026,48.2965088,52.9480591c-0.897522,5.723465-8.7259521,12.3887863-16.2929077,12.3887863
			l-52.4810791-0.143013c-1.1363525-0.0030975-1.9733276,1.0305023-1.7753296,2.1494751
			c1.4450073,8.1682281,11.2253418,14.0535736,27.7214355,14.0535736c5.6572266,0,12.4454346-1.2085724,19.4229126-5.2375031
			c5.6571655-3.0226593,13.6583862,1.3111725,16.350769,6.3525848c1.7225342,3.2256165,1.8912354,9.1324463-4.6333618,16.0504761
			c-0.0848999,0.0901031-0.1818237,0.1747131-0.2822876,0.2471008c-11.0650024,7.97258-21.1091919,10.3917542-33.4977417,10.3917542
			C718.2244263,166.8576202,696.9158936,142.6801453,696.9158936,112.6596222z M770.9477539,99.2452545
			c1.1583252,0,2.0211792-1.0810623,1.7594604-2.209465c-2.4284668-10.4715805-12.1101074-14.7141418-21.2943115-14.7141418
			c-9.1586914,0-18.810791,4.393837-21.5811157,14.6597137c-0.3078613,1.140831,0.5638428,2.2638931,1.7454834,2.2638931
			H770.9477539z"/>
		<path fill="#807575" d="M252.2725525,57.695652c-7.4777374-0.0423813-16.3006439,5.3666687-17.896759,12.2150764
			c-8.2152405-7.711834-16.1729431-12.5964317-27.6602478-12.5964317c-26.2423248,0-47.5161438,24.1801872-47.5161438,54.0080376
			c0,29.8279648,21.273819,54.0079117,47.5161438,54.0079117c11.5411072,0,17.5874176-4.8192902,25.8197937-12.5964813
			c1.7543488,6.6287842,12.4183197,11.6711884,19.7372131,11.6711884c10.8443604,0,15.7259216-6.8948212,15.7259216-15.3990479
			V73.0945892C267.9984741,64.5903778,264.509552,57.7650146,252.2725525,57.695652z M237.2377167,117.7057419
			c-3.7600708,3.0941315-3.4390411,3.1651993-15.7134247,10.9187546
			c-9.7867432,6.1820526-12.4980469,6.9769745-16.7666779,8.8877563
			c-4.9745636,2.2267761-11.0087433-1.3371735-11.6524048-6.9760742c-0.5628204-4.9309082-0.7479858-7.5434113-0.7479858-19.8065033
			c0-9.6347961,0.0719147-14.8899384,0.7479858-19.806633c0.7606354-5.5315018,6.5749969-8.3659058,11.6524048-6.3847961
			c4.3619537,1.7019348,6.6810608,2.4466934,16.4506836,8.4108047c10.7465515,6.5606461,12.0986023,7.8509445,16.0294189,10.8045578
			C241.5952454,107.027832,241.4464874,114.2423782,237.2377167,117.7057419z"/>
		<path fill="#807575" d="M575.7503052,34.3496132c-11.7820435,6.0210609-17.1069336,11.3459053-23.1279907,23.1280022
			c-0.3771362,0.7379761-1.4311523,0.7379761-1.8082275,0c-6.0210571-11.7820969-11.3459473-17.1069412-23.1279907-23.1280022
			c-0.7379761-0.3771324-0.7379761-1.4311485,0-1.8082771c11.7820435-6.0210629,17.1069336-11.3459053,23.1279907-23.128006
			c0.3770752-0.737977,1.4310913-0.737977,1.8082275,0c6.0210571,11.7820997,11.3459473,17.1069412,23.1279907,23.128006
			C576.4883423,32.9184647,576.4883423,33.9724808,575.7503052,34.3496132z"/>
	</g>
	<g>
		
			<linearGradient id="SVGID_1_" gradientUnits="userSpaceOnUse" x1="-8.4131613" y1="208.1269989" x2="794.7940674" y2="78.1733932" gradientTransform="matrix(1 0 0 -1 0 230)">
			<stop  offset="0.0000019" style="stop-color:#FF6E9B"/>
			<stop  offset="0.27964" style="stop-color:#E969DB"/>
			<stop  offset="0.6570469" style="stop-color:#8D82EB"/>
			<stop  offset="1" style="stop-color:#4D85FF"/>
		</linearGradient>
		<path fill="url(#SVGID_1_)" d="M5.5284219,46.7808876c-0.0459623,0.87183,1.1076078,1.226162,1.5476398,0.4721184
			c2.8286557-4.847229,9.1917629-14.3941727,18.7739639-21.1990814
			c11.1620216-7.9268398,20.963047-11.7728844,25.1546822-12.9840698c0.1158333-0.0334682,0.3006439-0.1009045,0.381649-0.1705847
			c0.3117943-0.2681942,0.4017067-0.7070541,0.1105957-1.0035172c-0.0655479-0.0667429-0.2316628-0.2045069-0.3244553-0.2573748
			c-4.3362503-2.4706144-17.3278656-9.6487598-28.0323181-4.7830968
			C14.5547276,10.7577591,6.4800835,28.7291698,5.5284219,46.7808876z"/>
		
			<linearGradient id="SVGID_00000085972916383824023850000011108055308302764174_" gradientUnits="userSpaceOnUse" x1="-5.4258637" y1="226.5906525" x2="797.7813721" y2="96.6370544" gradientTransform="matrix(1 0 0 -1 0 230)">
			<stop  offset="0.0000019" style="stop-color:#FF6E9B"/>
			<stop  offset="0.27964" style="stop-color:#E969DB"/>
			<stop  offset="0.6570469" style="stop-color:#8D82EB"/>
			<stop  offset="1" style="stop-color:#4D85FF"/>
		</linearGradient>
		<path fill="url(#SVGID_00000085972916383824023850000011108055308302764174_)" d="M148.4631805,46.4071274
			c0.0561676,0.9659958-1.2226257,1.3591003-1.7147675,0.5259628c-2.916626-4.9375877-9.2104645-14.2209282-18.5861359-20.8791656
			c-11.1620255-7.9268398-20.9630356-11.7728844-25.154686-12.9840698
			c-0.1158295-0.0334682-0.3006439-0.1009045-0.3816376-0.1705847c-0.3117981-0.2681942-0.4017105-0.7070541-0.1105881-1.0035172
			c0.0655365-0.0667429,0.2316437-0.2045069,0.32444-0.2573748c4.3362427-2.4706144,17.3278656-9.6487598,28.0323257-4.7830968
			C139.3983154,10.7308226,147.4207153,28.4817543,148.4631805,46.4071274z"/>
		<g>
			
				<linearGradient id="SVGID_00000062872200643477389490000010387182606631151236_" gradientUnits="userSpaceOnUse" x1="-29.0083332" y1="80.8339462" x2="774.1989136" y2="-49.1196594" gradientTransform="matrix(1 0 0 -1 0 230)">
				<stop  offset="0.0000019" style="stop-color:#FF6E9B"/>
				<stop  offset="0.27964" style="stop-color:#E969DB"/>
				<stop  offset="0.6570469" style="stop-color:#8D82EB"/>
				<stop  offset="1" style="stop-color:#4D85FF"/>
			</linearGradient>
			<path fill="url(#SVGID_00000062872200643477389490000010387182606631151236_)" d="M2.4230022,220.9819183
				c-3.0980024,0-3.2896786-4.5523682-0.2022429-4.8065643c74.0131302-6.0935974,219.3235016-19.3490906,393.0639343-19.3490906
				c173.733429,0,324.835907,13.254715,402.4854431,19.3483429c3.0942383,0.2428284,2.9107056,4.807312-0.1932373,4.807312
				c0,0-250.3954468-7.0769348-402.2417297-7.0769348C247.0108337,213.9049835,2.4230022,220.9819183,2.4230022,220.9819183z"/>
			
				<linearGradient id="SVGID_00000047757355073953447530000008573989586867481256_" gradientUnits="userSpaceOnUse" x1="-29.0083332" y1="80.8339462" x2="774.1989136" y2="-49.1196594" gradientTransform="matrix(1 0 0 -1 0 230)">
				<stop  offset="0.0000019" style="stop-color:#FF6E9B"/>
				<stop  offset="0.27964" style="stop-color:#E969DB"/>
				<stop  offset="0.6570469" style="stop-color:#8D82EB"/>
				<stop  offset="1" style="stop-color:#4D85FF"/>
			</linearGradient>
			<path fill="url(#SVGID_00000047757355073953447530000008573989586867481256_)" d="M2.4230022,220.9819183
				c-3.0980024,0-3.2896786-4.5523682-0.2022429-4.8065643c74.0131302-6.0935974,219.3235016-19.3490906,393.0639343-19.3490906
				c173.733429,0,324.835907,13.254715,402.4854431,19.3483429c3.0942383,0.2428284,2.9107056,4.807312-0.1932373,4.807312
				c0,0-250.3954468-7.0769348-402.2417297-7.0769348C247.0108337,213.9049835,2.4230022,220.9819183,2.4230022,220.9819183z"/>
		</g>
		
			<linearGradient id="SVGID_00000028300203078634838960000010339751662517876891_" gradientUnits="userSpaceOnUse" x1="-17.1089764" y1="154.3805695" x2="786.0982666" y2="24.4269676" gradientTransform="matrix(1 0 0 -1 0 230)">
			<stop  offset="0.0000019" style="stop-color:#FF6E9B"/>
			<stop  offset="0.27964" style="stop-color:#E969DB"/>
			<stop  offset="0.6570469" style="stop-color:#8D82EB"/>
			<stop  offset="1" style="stop-color:#4D85FF"/>
		</linearGradient>
		<path fill="url(#SVGID_00000028300203078634838960000010339751662517876891_)" d="M76.5009918,167.3789825
			c-39.8790207,0-73.596611-31.0256042-76.3248444-71.3930359c-2.8446183-42.1150284,29.102478-78.6934509,71.2165451-81.5390167
			c30.5505447-2.0595341,61.060585,13.379158,73.2961197,41.4472771c6.8957062,15.8186874,4.3420105,25.359787-12.4733582,25.359787
			c-15.2596436,0-14.4183426-1.4216537-18.9197769-9.5106506c-8.0072327-14.3888168-23.0940247-23.3094482-39.5324707-22.2108955
			c-24.0221481,1.6234856-41.9262924,23.5497017-38.0736961,47.8720055
			c1.337204,8.4420776,5.3107758,16.3150482,11.3127518,22.4005203
			c8.6150246,8.7348557,20.2502861,13.1304855,32.3414345,12.3120041
			c12.3695984-0.8356323,23.9548264-6.8650131,30.8538895-17.1869431c3.4579544-5.1735611,10.710144-5.2390442,19.778717-5.2390442
			c20.3804779,0,14.4530487,17.8528519,8.7914581,25.7427902c-13.3807526,18.6445465-34.1754608,30.2233429-57.0535507,31.7687225
			C79.9666138,167.3207855,78.2276001,167.3789825,76.5009918,167.3789825z"/>
		
			<linearGradient id="SVGID_00000045602738427204943680000002225052691004643761_" gradientUnits="userSpaceOnUse" x1="119.4774628" y1="188.3232117" x2="119.4774628" y2="188.3232117" gradientTransform="matrix(1 0 0 -1 0 230)">
			<stop  offset="0.0000019" style="stop-color:#FF6E9B"/>
			<stop  offset="0.27964" style="stop-color:#E969DB"/>
			<stop  offset="0.6570469" style="stop-color:#8D82EB"/>
			<stop  offset="1" style="stop-color:#4D85FF"/>
		</linearGradient>
		<path fill="url(#SVGID_00000045602738427204943680000002225052691004643761_)" d="M119.4774628,41.6767921"/>
		
			<linearGradient id="SVGID_00000005228401104009266270000008956598200850633628_" gradientUnits="userSpaceOnUse" x1="-14.04144" y1="173.3401642" x2="789.1658325" y2="43.3865585" gradientTransform="matrix(1 0 0 -1 0 230)">
			<stop  offset="0.0000019" style="stop-color:#FF6E9B"/>
			<stop  offset="0.27964" style="stop-color:#E969DB"/>
			<stop  offset="0.6570469" style="stop-color:#8D82EB"/>
			<stop  offset="1" style="stop-color:#4D85FF"/>
		</linearGradient>
		<path fill="url(#SVGID_00000005228401104009266270000008956598200850633628_)" d="M286.359375,145.5009766
			c-1.9056091-5.7153625-1.6591187-12.2958069,5.4413452-16.4172058c7.3097534-4.242897,18.459259-0.7255707,27.5278931,6.8024445
			c3.3817749,2.8031006,7.8197327,3.8052368,13.1031494,3.8052368c6.34021,0,10.3560791-1.80336,10.3560791-5.2079926
			c0-2.0030823-0.845459-3.4046326-7.3970337-5.6086273l-12.6804199-4.4067612
			c-6.1288452-2.2027817-34.6601257-9.0144424-34.6601257-32.0492249c0-21.0329132,19.6547241-34.6538315,45.2269592-34.6538315
			c15.2167358,0,27.8971558,4.2070656,36.7737427,14.823967c2.8649292,3.393631,7.432251,9.5906448,2.5664673,16.090744
			c-6.9324646,9.2609253-27.0825195,1.5363312-31.9432068-1.8694992c-2.3249817-1.6024551-5.072052-2.2027817-7.8197327-2.2027817
			c-4.6493225,0-6.9743042,2.4036942-6.9743042,5.0070877c0,2.6034012,2.3249817,3.8064499,7.3970337,5.4089127
			l12.2576904,4.8073883c24.0933228,8.0123062,34.8714905,19.229538,35.29422,33.65168
			c0,23.6351166-22.6137695,34.0511169-48.3973694,34.0511169
			C310.0293274,167.5336304,293.7563782,160.5234528,286.359375,145.5009766z"/>
		
			<linearGradient id="SVGID_00000142151047806369580630000007697355685192667531_" gradientUnits="userSpaceOnUse" x1="-5.6783948" y1="225.0298309" x2="797.5288696" y2="95.0762253" gradientTransform="matrix(1 0 0 -1 0 230)">
			<stop  offset="0.0000019" style="stop-color:#FF6E9B"/>
			<stop  offset="0.27964" style="stop-color:#E969DB"/>
			<stop  offset="0.6570469" style="stop-color:#8D82EB"/>
			<stop  offset="1" style="stop-color:#4D85FF"/>
		</linearGradient>
		<path fill="url(#SVGID_00000142151047806369580630000007697355685192667531_)" d="M692.6491699,73.1891022
			c0,2.6477356-1.0150146,5.5946274-3.0460815,8.8425674l-36.3045044,76.8726578
			c-3.0460205,5.0523376-7.7863159,7.5785217-14.2171021,7.5785217c-7.786377,0-12.7814331-2.5261841-14.9783936-7.5785217
			l-34.7810669-74.1660461c-2.7093506-5.4132309-4.0620117-9.2623215-4.0620117-11.5491791
			c0-10.1047058,5.3308105-15.1580009,15.9943848-15.1580009c7.9533081,0,13.454834,3.6715012,16.5018921,11.0078545
			l21.3251953,45.4740067l20.5639038-46.1957703c2.7054443-6.8577118,8.0372314-10.2860909,15.9943848-10.2860909
			C686.9768066,58.0311012,692.6491699,63.0843964,692.6491699,73.1891022z"/>
		
			<linearGradient id="SVGID_00000088816352889297753610000008302279721995529891_" gradientUnits="userSpaceOnUse" x1="-7.9952745" y1="210.7098389" x2="795.2119751" y2="80.7562332" gradientTransform="matrix(1 0 0 -1 0 230)">
			<stop  offset="0.0000019" style="stop-color:#FF6E9B"/>
			<stop  offset="0.27964" style="stop-color:#E969DB"/>
			<stop  offset="0.6570469" style="stop-color:#8D82EB"/>
			<stop  offset="1" style="stop-color:#4D85FF"/>
		</linearGradient>
		<path fill="url(#SVGID_00000088816352889297753610000008302279721995529891_)" d="M411.8431396,149.0768585V34.7689743
			c0-10.843235,6.8140259-19.6334114,19.6334229-19.6334114h4.714447c11.8420715,0,15.1156006,10.3202162,15.306427,20.0287209
			c0.4524536,23.0164261,0,91.7149582,0,91.7149582c0,2.9161224,2.3640137,5.2801056,5.2801514,5.2801056h45.6886597
			c13.9718018,0,16.9181519,7.5745239,16.9181519,16.9181366v0.0000458c0,9.3432617-7.5742188,16.91745-16.91745,16.91745
			h-73.705658C419.4176636,165.9949799,411.8431396,158.4204865,411.8431396,149.0768585z"/>
		
			<linearGradient id="SVGID_00000098191231137764690740000003688470703009409725_" gradientUnits="userSpaceOnUse" x1="-8.9346123" y1="204.9040527" x2="794.272644" y2="74.9504471" gradientTransform="matrix(1 0 0 -1 0 230)">
			<stop  offset="0.0000019" style="stop-color:#FF6E9B"/>
			<stop  offset="0.27964" style="stop-color:#E969DB"/>
			<stop  offset="0.6570469" style="stop-color:#8D82EB"/>
			<stop  offset="1" style="stop-color:#4D85FF"/>
		</linearGradient>
		<path fill="url(#SVGID_00000098191231137764690740000003688470703009409725_)" d="M532.9655762,155.5296021
			c-0.270813-3.9743042,0-77.6228409,0-77.6228409c0-7.1177521,7.2341919-12.5044174,13.359314-12.8878326
			c3.9419556-0.2467499,5.753479-0.2623672,9.520813,0c5.982605,0.4166565,13.3599243,5.7703629,13.3599243,12.888443
			c0,0,0.166748,73.6783829,0,77.6222305c-0.2445679,5.7876282-4.4464722,9.6092987-10.8716431,10.4880219
			c-5.145874,0.7037354-8.1160889,0.6412506-14.4966431,0C539.2550049,165.5570831,533.3594971,161.3096924,532.9655762,155.5296021
			z"/>
		
			<linearGradient id="SVGID_00000029732657694424685730000016910774571324835219_" gradientUnits="userSpaceOnUse" x1="-3.2768819" y1="239.8729248" x2="799.9303589" y2="109.9193115" gradientTransform="matrix(1 0 0 -1 0 230)">
			<stop  offset="0.0000019" style="stop-color:#FF6E9B"/>
			<stop  offset="0.27964" style="stop-color:#E969DB"/>
			<stop  offset="0.6570469" style="stop-color:#8D82EB"/>
			<stop  offset="1" style="stop-color:#4D85FF"/>
		</linearGradient>
		<path fill="url(#SVGID_00000029732657694424685730000016910774571324835219_)" d="M696.9158936,112.6596222
			c0-29.0129776,19.9882812-55.0032959,54.3079224-55.0032959c29.4169922,0,52.4203491,26.6508026,48.2965088,52.9480591
			c-0.897522,5.723465-8.7259521,12.3887863-16.2929077,12.3887863l-52.4810791-0.143013
			c-1.1363525-0.0030975-1.9733276,1.0305023-1.7753296,2.1494751c1.4450073,8.1682281,11.2253418,14.0535736,27.7214355,14.0535736
			c5.6572266,0,12.4454346-1.2085724,19.4229126-5.2375031c5.6571655-3.0226593,13.6583862,1.3111725,16.350769,6.3525848
			c1.7225342,3.2256165,1.8912354,9.1324463-4.6333618,16.0504761c-0.0848999,0.0901031-0.1818237,0.1747131-0.2822876,0.2471008
			c-11.0650024,7.97258-21.1091919,10.3917542-33.4977417,10.3917542
			C718.2244263,166.8576202,696.9158936,142.6801453,696.9158936,112.6596222z M770.9477539,99.2452545
			c1.1583252,0,2.0211792-1.0810623,1.7594604-2.209465c-2.4284668-10.4715805-12.1101074-14.7141418-21.2943115-14.7141418
			c-9.1586914,0-18.810791,4.393837-21.5811157,14.6597137c-0.3078613,1.140831,0.5638428,2.2638931,1.7454834,2.2638931
			H770.9477539z"/>
		
			<linearGradient id="SVGID_00000054949516080756476880000006817923502395916948_" gradientUnits="userSpaceOnUse" x1="-16.4937458" y1="158.1831512" x2="786.713501" y2="28.2295418" gradientTransform="matrix(1 0 0 -1 0 230)">
			<stop  offset="0.0000019" style="stop-color:#FF6E9B"/>
			<stop  offset="0.27964" style="stop-color:#E969DB"/>
			<stop  offset="0.6570469" style="stop-color:#8D82EB"/>
			<stop  offset="1" style="stop-color:#4D85FF"/>
		</linearGradient>
		<path fill="url(#SVGID_00000054949516080756476880000006817923502395916948_)" d="M252.2725525,57.695652
			c-7.4777374-0.0423813-16.3006439,5.3666687-17.896759,12.2150764
			c-8.2152405-7.711834-16.1729431-12.5964317-27.6602478-12.5964317c-26.2423248,0-47.5161438,24.1801872-47.5161438,54.0080376
			c0,29.8279648,21.273819,54.0079117,47.5161438,54.0079117c11.5411072,0,17.5874176-4.8192902,25.8197937-12.5964813
			c1.7543488,6.6287842,12.4183197,11.6711884,19.7372131,11.6711884c10.8443604,0,15.7259216-6.8948212,15.7259216-15.3990479
			V73.0945892C267.9984741,64.5903778,264.509552,57.7650146,252.2725525,57.695652z M237.2377167,117.7057419
			c-3.7600708,3.0941315-3.4390411,3.1651993-15.7134247,10.9187546
			c-9.7867432,6.1820526-12.4980469,6.9769745-16.7666779,8.8877563
			c-4.9745636,2.2267761-11.0087433-1.3371735-11.6524048-6.9760742c-0.5628204-4.9309082-0.7479858-7.5434113-0.7479858-19.8065033
			c0-9.6347961,0.0719147-14.8899384,0.7479858-19.806633c0.7606354-5.5315018,6.5749969-8.3659058,11.6524048-6.3847961
			c4.3619537,1.7019348,6.6810608,2.4466934,16.4506836,8.4108047c10.7465515,6.5606461,12.0986023,7.8509445,16.0294189,10.8045578
			C241.5952454,107.027832,241.4464874,114.2423782,237.2377167,117.7057419z"/>
		
			<linearGradient id="SVGID_00000088109910251692688960000004914548668332059533_" gradientUnits="userSpaceOnUse" x1="4.0508294" y1="285.1634827" x2="807.2580566" y2="155.2098694" gradientTransform="matrix(1 0 0 -1 0 230)">
			<stop  offset="0.0000019" style="stop-color:#FF6E9B"/>
			<stop  offset="0.27964" style="stop-color:#E969DB"/>
			<stop  offset="0.6570469" style="stop-color:#8D82EB"/>
			<stop  offset="1" style="stop-color:#4D85FF"/>
		</linearGradient>
		<path fill="url(#SVGID_00000088109910251692688960000004914548668332059533_)" d="M575.7503052,34.3496132
			c-11.7820435,6.0210609-17.1069336,11.3459053-23.1279907,23.1280022c-0.3771362,0.7379761-1.4311523,0.7379761-1.8082275,0
			c-6.0210571-11.7820969-11.3459473-17.1069412-23.1279907-23.1280022c-0.7379761-0.3771324-0.7379761-1.4311485,0-1.8082771
			c11.7820435-6.0210629,17.1069336-11.3459053,23.1279907-23.128006c0.3770752-0.737977,1.4310913-0.737977,1.8082275,0
			c6.0210571,11.7820997,11.3459473,17.1069412,23.1279907,23.128006
			C576.4883423,32.9184647,576.4883423,33.9724808,575.7503052,34.3496132z"/>
	</g>
</g>
</svg>
